<svg xmlns="http://www.w3.org/2000/svg" viewBox="0 0 544.2 544.2" xmlns:v="https://vecta.io/nano"><path d="M272.1,0C2.1,0,0,121.8,0,272.1S2.1,544.2,272.1,544.2,544.2,422.4,544.2,272.1,542.1,0,272.1,0Z" fill="#4264fb"/><path d="M272.1,110.91A161.19,161.19,0,1,0,433.29,272.1,161.18,161.18,0,0,0,272.1,110.91Zm76.52,200.72C293.5,366.75,195,349.16,195,349.16s-17.77-98.27,37.53-153.58c30.65-30.64,81.41-29.37,113.51,2.54s33.18,82.86,2.54,113.51Zm-58-106.26-15.77,32.46-32.46,15.78,32.46,15.77,15.77,32.46,15.78-32.46,32.46-15.77-32.46-15.78Z" fill="#fff"/></svg>